<?xml version="1.0" standalone="no"?>
<!DOCTYPE svg PUBLIC "-//W3C//DTD SVG 20010904//EN"
 "http://www.w3.org/TR/2001/REC-SVG-20010904/DTD/svg10.dtd">
<svg version="1.0" xmlns="http://www.w3.org/2000/svg"
 width="1000.000000pt" height="1000.000000pt" viewBox="0 0 1000.000000 1000.000000"
 preserveAspectRatio="xMidYMid meet">
<metadata>
Created by potrace 1.11, written by Peter Selinger 2001-2013
</metadata>
<g transform="translate(0.000000,1000.000000) scale(0.100000,-0.100000)"
fill="#000000" stroke="none">
<path d="M6035 9855 c-81 -14 -172 -49 -252 -96 -73 -44 -181 -149 -227 -221
-96 -151 -118 -363 -55 -535 11 -32 21 -73 21 -92 0 -46 -31 -85 -71 -88 -17
-2 -50 -12 -72 -24 -28 -14 -64 -21 -112 -23 -102 -4 -195 -31 -319 -93 -305
-153 -722 -497 -1076 -887 -69 -76 -49 -72 -192 -43 -96 19 -93 20 -98 -44
l-3 -57 53 -7 c97 -12 97 -7 7 -108 -124 -139 -142 -160 -174 -203 -16 -21
-35 -45 -42 -52 -7 -8 -26 -30 -41 -50 -15 -21 -29 -39 -32 -42 -28 -25 -274
-375 -349 -495 -24 -38 -47 -72 -50 -75 -19 -15 -73 -93 -86 -123 -19 -45 -22
-97 -6 -125 9 -18 9 -31 -4 -68 -8 -25 -18 -62 -21 -82 -3 -21 -8 -40 -10 -44
-7 -11 -6 -188 0 -238 4 -25 13 -72 20 -105 8 -33 14 -60 13 -61 -1 -1 -22 2
-47 5 -44 7 -136 -8 -193 -30 -68 -28 -86 -109 -38 -175 39 -54 54 -66 148
-118 46 -25 99 -64 119 -85 65 -73 156 -98 244 -68 34 12 36 11 71 -24 25 -25
52 -40 86 -48 l50 -12 47 -172 c25 -95 85 -311 132 -482 108 -391 133 -483
140 -516 5 -23 -10 -45 -116 -163 l-122 -136 -55 73 c-119 154 -228 235 -430
318 -30 13 -33 18 -33 57 0 56 -24 106 -64 135 -30 21 -38 22 -349 25 l-318 3
-10 27 c-26 72 -57 117 -104 152 -170 127 -442 122 -583 -10 -34 -31 -82 -121
-82 -152 0 -17 -23 -18 -335 -18 -374 0 -382 -1 -431 -66 l-29 -37 -2 -481 c0
-265 -2 -488 -2 -497 -1 -9 -11 -27 -22 -40 -99 -110 -224 -309 -288 -459 -23
-52 -46 -104 -51 -115 -27 -62 -75 -240 -97 -365 -21 -119 -25 -438 -7 -565
122 -869 786 -1533 1659 -1661 110 -16 309 -20 430 -10 44 4 82 9 85 11 3 2
31 6 63 9 32 4 68 11 80 15 12 5 25 9 30 9 61 4 294 85 420 147 345 171 625
433 819 767 35 60 68 115 73 124 9 13 40 4 233 -65 123 -45 240 -90 262 -101
65 -33 166 -52 258 -48 l84 3 24 -65 c14 -36 36 -95 50 -132 l25 -67 87 56
c48 31 89 57 91 59 2 2 3 15 3 29 0 20 8 29 35 40 31 13 44 13 107 0 172 -36
280 -1 261 84 -9 43 -95 125 -207 198 -57 37 -104 67 -106 69 -2 1 8 24 21 51
99 198 61 465 -89 632 l-47 52 24 26 c39 44 42 47 100 114 31 35 89 102 129
147 l73 84 54 -4 c29 -3 53 -2 54 1 0 3 2 15 3 26 14 115 25 138 99 217 7 7
43 49 82 93 38 44 72 82 75 85 3 3 34 39 70 80 36 41 69 80 75 86 5 6 33 38
60 70 28 32 84 96 126 143 69 79 93 106 146 167 10 12 43 50 74 85 31 35 94
107 140 159 45 52 85 97 88 100 3 3 45 50 92 105 48 55 95 110 105 121 11 12
42 48 69 80 28 32 64 73 80 91 l31 34 55 -185 55 -184 -120 -80 c-488 -322
-794 -823 -865 -1412 -9 -75 -7 -365 3 -430 3 -19 8 -55 11 -80 8 -58 50 -228
76 -305 167 -493 517 -890 984 -1120 179 -89 342 -141 560 -179 141 -25 432
-25 583 0 546 90 1012 390 1317 845 149 222 271 539 300 779 3 25 8 58 12 74
3 16 6 95 8 175 3 174 -7 282 -44 454 -18 85 -18 89 0 84 18 -5 21 6 64 200 3
14 1 23 -7 24 -15 1 -32 4 -70 14 -26 7 -28 4 -39 -39 l-11 -46 -48 109 c-130
298 -334 564 -585 761 -44 34 -81 66 -83 70 -1 3 9 12 22 18 l25 11 -21 48
c-11 26 -22 49 -23 51 -2 2 -30 -11 -64 -27 l-61 -31 -41 26 -41 26 26 27 c14
15 26 29 26 32 0 3 -18 20 -41 38 l-41 33 -26 -24 c-59 -53 -54 -52 -144 -18
-46 18 -96 37 -113 42 -53 16 -169 47 -200 52 -16 3 -53 10 -80 15 -186 35
-488 31 -675 -9 -25 -5 -56 -12 -70 -14 -14 -3 -34 -8 -45 -11 -15 -5 -38 7
-80 40 -48 37 -61 53 -66 81 -7 39 -6 40 56 49 88 13 208 52 304 99 66 32 67
33 266 261 48 55 93 106 99 113 7 7 23 14 37 17 26 5 89 70 89 92 0 8 10 13
28 12 46 -3 52 0 71 31 l18 31 -1 -76 c-1 -42 1 -80 4 -85 3 -5 52 -42 108
-83 103 -75 142 -88 142 -48 0 22 -26 45 -112 102 -67 43 -68 45 -69 89 -3
122 2 212 12 231 9 17 1 45 -46 162 -37 92 -66 149 -83 165 -39 34 -99 63
-141 68 -69 8 -106 24 -194 82 -36 24 -37 26 -21 49 15 23 14 26 -24 76 -113
148 -306 464 -338 554 -41 114 -124 279 -217 428 -19 30 -187 278 -236 348
-24 34 -89 157 -146 272 -172 353 -182 376 -183 437 -1 53 -35 148 -85 235
-29 50 -36 73 -36 116 0 98 -45 217 -136 358 -39 60 -42 69 -29 87 14 20 70
50 106 57 43 9 84 7 153 -6 77 -14 110 -9 146 20 22 17 24 26 21 90 -2 69 -2
71 27 85 28 15 52 69 37 83 -3 4 8 15 24 25 27 16 29 21 19 39 -12 23 -6 74
12 96 6 7 22 13 34 13 36 0 75 37 75 72 0 16 -22 81 -50 143 -49 110 -49 113
-34 144 13 26 17 56 23 171 1 8 24 26 52 40 59 29 139 102 163 149 23 44 28
117 9 136 -23 23 -137 9 -298 -37 l-70 -20 -25 29 c-40 47 -112 97 -176 123
-32 13 -74 36 -92 52 -95 82 -230 116 -367 93z m-410 -2780 c15 -20 55 -84 90
-142 l63 -106 -42 -35 c-22 -19 -43 -36 -45 -38 -3 -2 5 -17 16 -32 29 -39 63
-108 63 -128 0 -14 7 -15 48 -9 26 4 52 11 59 16 12 10 62 -88 229 -446 76
-164 165 -310 269 -444 83 -106 296 -363 337 -406 47 -50 95 -135 76 -135
-308 0 -389 -18 -417 -93 -11 -29 -2 -41 41 -52 28 -7 35 -28 74 -208 8 -40
17 -79 19 -87 2 -8 13 -53 25 -100 12 -47 24 -96 26 -109 3 -13 6 -28 7 -34 2
-10 -144 -35 -304 -52 -30 -3 -80 -10 -110 -14 -30 -5 -55 -8 -57 -7 -1 2 25
31 58 66 86 90 109 144 107 245 -2 69 -7 90 -38 155 -20 41 -57 102 -82 135
-40 53 -239 249 -381 376 -27 24 -59 53 -70 64 -26 25 -425 370 -556 480 -52
44 -102 87 -112 95 -9 8 -84 71 -167 140 -82 69 -150 127 -151 130 0 3 14 12
32 19 38 17 112 90 168 167 23 30 44 53 48 50 14 -8 67 22 106 60 41 40 124
161 144 210 7 17 26 35 44 43 35 16 157 97 173 115 6 6 18 17 28 25 16 13 16
11 2 -22 -20 -49 -20 -50 18 -66 17 -7 58 -29 90 -48 32 -19 59 -33 61 -32 1
2 16 22 33 45 l32 40 -47 31 c-26 17 -67 40 -92 53 -25 12 -47 24 -50 27 -6 6
83 92 96 93 7 0 24 -16 39 -35z m1473 -2140 c8 -7 3 -60 -13 -165 -3 -14 -7
-60 -10 -101 -11 -148 -21 -164 -121 -183 -10 -2 -44 -11 -76 -19 l-56 -15
-33 122 c-17 66 -44 169 -59 227 -15 58 -31 115 -35 128 l-7 22 204 -6 c111
-4 204 -8 206 -10z m165 -4 c4 -1 7 -34 7 -73 -1 -71 -2 -74 -41 -118 -80 -88
-131 -141 -134 -138 -2 4 13 201 19 248 3 19 5 47 6 61 0 26 1 27 68 24 37 -2
70 -4 75 -4z m270 -71 c14 0 107 -64 108 -74 0 -6 3 -20 5 -31 3 -11 8 -57 11
-101 l5 -82 -38 -55 c-159 -227 -176 -246 -234 -268 -75 -29 -281 -81 -296
-75 -9 3 -11 33 -8 107 5 101 6 103 39 133 18 17 79 74 135 126 57 52 123 114
149 137 44 39 46 44 49 100 2 32 5 67 7 78 2 11 4 26 4 33 1 10 9 7 30 -7 16
-12 31 -21 34 -21z m-3657 -379 c57 -48 64 -59 92 -139 34 -97 67 -220 60
-227 -2 -2 -57 -5 -123 -7 l-119 -3 -8 30 c-72 264 -151 555 -154 572 -3 16
26 -8 93 -75 54 -54 126 -122 159 -151z m964 215 c14 -3 48 -7 75 -10 28 -3
59 -8 70 -10 11 -2 48 -7 83 -11 l62 -7 -24 -19 c-14 -11 -31 -35 -38 -55 -8
-22 -26 -43 -48 -56 -36 -22 -152 -118 -183 -152 -9 -11 -19 -17 -21 -15 -4 4
-116 339 -116 346 0 5 88 -3 140 -11z m-2976 -206 c59 -23 121 -73 131 -107
l6 -23 -266 0 -266 0 7 23 c36 115 226 167 388 107z m5187 -267 c1 -131 3
-174 14 -229 5 -30 4 -32 -40 -44 -25 -7 -47 -11 -49 -9 -3 2 -27 78 -54 169
-39 128 -48 168 -38 177 10 11 136 60 159 62 4 1 7 -56 8 -126z m-428 58 c3
-12 -7 -31 -27 -53 -17 -19 -56 -63 -86 -99 -30 -35 -59 -69 -65 -75 -15 -17
-126 -143 -180 -204 -26 -30 -71 -82 -100 -115 -29 -33 -122 -139 -206 -235
-83 -96 -155 -177 -158 -180 -3 -3 -33 -36 -66 -75 -33 -38 -64 -75 -70 -81
-5 -6 -21 -24 -35 -40 -185 -214 -310 -353 -311 -347 -2 10 -6 61 -8 86 -1 15
-7 17 -43 11 -71 -10 -73 -11 -70 -25 2 -8 5 -58 6 -112 l3 -98 -41 -47 c-22
-26 -43 -49 -46 -52 -3 -3 -32 -36 -65 -75 -33 -38 -63 -72 -66 -75 -3 -3 -39
-43 -79 -90 -40 -47 -76 -87 -79 -90 -3 -3 -33 -36 -66 -75 -33 -38 -65 -76
-72 -83 -9 -10 -20 -9 -55 2 -24 8 -72 19 -108 23 l-65 8 0 58 c0 54 1 58 20
52 63 -21 111 -32 121 -28 14 5 31 42 39 86 5 24 1 48 -13 79 -19 44 -103 138
-123 138 -12 0 -6 60 16 170 2 14 7 39 10 55 30 187 114 527 137 560 14 18 21
42 20 62 -2 19 5 55 13 81 27 78 104 216 128 227 12 6 74 39 138 73 64 34 119
62 122 62 3 0 -1 -22 -8 -50 -7 -27 -10 -52 -7 -54 7 -4 81 -20 96 -20 5 -1
15 24 23 54 41 165 31 149 150 219 60 34 115 66 123 71 186 114 203 122 238
112 31 -10 37 -8 62 16 15 15 29 32 31 37 2 6 15 20 29 32 25 22 81 34 220 49
25 2 56 6 70 9 14 2 52 7 85 11 33 5 62 8 65 9 3 1 34 5 70 9 36 5 73 10 82
11 9 2 48 7 85 10 37 4 70 9 72 11 12 11 39 2 44 -15z m-3665 -242 c110 -50
209 -130 291 -233 88 -112 86 -106 45 -152 -19 -21 -51 -58 -71 -81 -19 -24
-39 -43 -43 -43 -3 0 -51 29 -105 66 -54 36 -124 78 -156 94 l-57 29 -1 180
-1 180 25 -9 c14 -5 46 -19 73 -31z m998 -170 c-8 -46 -17 -119 -20 -162 -5
-88 -11 -104 -21 -55 -3 18 -13 54 -21 79 -8 25 -16 54 -18 65 -3 10 -11 46
-20 78 -9 33 -15 60 -13 61 3 4 122 21 125 19 2 -1 -4 -39 -12 -85z m-238
-182 c18 -67 35 -131 38 -143 4 -16 -1 -23 -23 -32 -15 -6 -37 -11 -48 -10
-67 3 -64 5 -198 -142 l-58 -64 -56 56 -56 57 74 83 c41 46 76 85 79 88 3 3
50 56 104 118 54 61 101 112 105 112 3 0 21 -55 39 -123z m4192 19 c178 -23
162 -12 146 -106 -3 -14 -5 -36 -6 -50 0 -22 -2 -23 -11 -7 -7 12 -17 15 -35
11 -14 -4 -60 -9 -102 -13 l-77 -6 0 -55 0 -55 40 1 c22 0 69 3 104 7 l64 7
-7 -59 c-4 -32 -8 -68 -11 -79 -2 -10 -6 -43 -10 -73 -3 -30 -8 -65 -10 -79
-4 -24 -39 -280 -49 -350 -30 -221 -28 -217 -115 -356 -45 -70 -82 -133 -85
-139 -5 -15 -7 -12 -89 135 -71 128 -75 139 -81 215 -4 44 -9 96 -11 115 -3
19 -7 64 -10 100 -3 36 -8 81 -10 100 -2 19 -6 73 -10 120 -4 47 -8 96 -11
110 -4 29 -17 171 -18 215 -1 34 -10 32 116 22 43 -4 79 -3 82 1 2 4 6 30 7
57 3 49 3 50 -26 52 -71 6 -152 11 -172 12 -19 1 -22 8 -28 66 -4 36 -5 68 -2
71 2 3 42 8 88 11 46 3 85 6 86 7 5 5 210 -2 253 -8z m-486 -51 c2 -17 7 -64
11 -105 3 -41 8 -91 10 -110 2 -19 6 -66 9 -105 4 -38 9 -92 11 -120 11 -102
14 -132 20 -200 3 -38 8 -86 10 -105 3 -19 7 -71 11 -115 3 -44 8 -84 10 -90
13 -29 -36 47 -67 104 -20 36 -85 154 -146 261 -92 164 -173 345 -173 386 0 5
14 -12 31 -38 l31 -48 42 24 c22 12 64 28 93 35 44 11 51 16 47 34 -2 12 -5
36 -6 54 -1 23 -7 33 -19 33 -28 0 -142 -38 -177 -60 -18 -11 -36 -20 -41 -20
-5 0 -18 27 -29 59 l-20 59 73 27 c58 21 78 24 94 16 33 -18 62 -12 90 18 15
16 38 31 52 33 30 5 27 7 33 -27z m776 -3 l65 -19 -55 -18 c-30 -9 -58 -21
-63 -24 -13 -12 23 -101 41 -100 10 0 58 15 107 33 60 23 90 39 89 48 -1 12
11 10 57 -10 53 -23 72 -43 51 -55 -4 -3 -117 -183 -252 -400 -134 -218 -246
-395 -247 -393 -3 3 10 111 22 186 2 14 7 48 11 75 3 28 8 57 9 66 2 9 6 40
10 70 3 30 8 65 10 79 2 14 7 45 10 70 4 25 8 56 10 70 3 14 7 48 10 75 3 28
8 61 10 75 9 50 25 165 25 178 0 16 3 15 80 -6z m393 -168 c99 -52 265 -180
371 -289 58 -60 166 -188 166 -197 0 -3 -19 -18 -42 -34 -24 -16 -48 -33 -54
-39 -6 -5 -109 -82 -229 -170 -119 -88 -278 -206 -354 -261 l-136 -102 -5 62
-5 61 -52 1 -52 2 -3 -37 c-2 -20 -1 -62 2 -94 l6 -57 -36 -9 c-103 -27 -231
-53 -236 -49 -2 3 5 69 16 148 14 105 26 153 42 180 13 20 84 135 158 254 150
241 144 231 219 355 l54 89 50 -31 c40 -24 51 -27 58 -16 5 8 19 30 31 49 12
19 37 54 55 77 l34 41 -33 25 c-57 42 -59 42 -87 11 -27 -31 -27 -28 2 19 20
32 19 32 60 11z m-5626 -67 l73 -49 -49 -57 c-27 -31 -68 -76 -90 -101 l-40
-45 0 157 c-1 182 -9 174 106 95z m3947 -184 l-24 -42 32 -16 c58 -28 67 -40
112 -152 102 -252 202 -456 303 -620 34 -57 59 -103 55 -103 -4 0 -23 5 -42
11 -19 5 -46 12 -59 15 -13 3 -38 15 -55 27 -31 22 -177 137 -186 148 -3 3
-38 31 -77 63 -64 51 -73 63 -74 92 -1 19 -3 39 -4 44 -1 6 -3 15 -4 21 -1 6
-24 9 -61 8 -47 -2 -65 2 -83 17 -12 10 -56 46 -97 78 -41 33 -77 63 -80 66
-3 3 -47 38 -97 79 -51 40 -93 77 -93 82 0 5 17 28 37 51 117 135 215 222 362
322 l84 58 37 -104 37 -103 -23 -42z m-3686 -31 c71 -72 112 -124 112 -140 0
-7 8 -27 17 -43 13 -21 14 -32 7 -37 -6 -4 -22 -15 -35 -25 -13 -9 -121 -89
-239 -177 -118 -88 -218 -159 -222 -160 -5 0 -8 60 -8 134 l0 135 41 48 c23
26 45 50 48 53 3 3 37 41 76 85 38 44 87 98 107 120 21 22 38 43 38 48 0 15
12 6 58 -41z m3191 -262 c41 -33 90 -73 109 -88 137 -108 254 -206 257 -216 4
-12 14 -91 14 -119 1 -16 7 -18 54 -12 61 8 70 12 60 28 -4 7 13 -4 38 -24
133 -106 160 -129 154 -129 -4 0 -66 16 -139 36 -72 19 -183 49 -246 65 -63
17 -189 51 -280 76 -91 25 -192 52 -225 60 -33 9 -64 19 -69 24 -17 15 169
359 194 359 3 0 39 -27 79 -60z m-2935 -70 c51 -86 122 -233 128 -264 3 -19
-18 -26 -187 -61 -11 -3 -141 -32 -288 -65 -148 -33 -270 -60 -272 -60 -1 0
-3 27 -4 60 0 56 2 61 32 85 166 129 515 383 528 384 9 1 34 -31 63 -79z
m5726 7 c42 -66 119 -223 134 -273 7 -22 0 -24 -133 -50 -13 -3 -180 -41 -326
-75 -69 -16 -285 -63 -338 -74 -10 -2 -26 -6 -35 -9 -9 -3 -28 -7 -42 -10 -14
-3 -41 -8 -60 -12 l-35 -6 35 26 c19 14 46 34 59 43 13 10 79 59 145 108 67
50 195 144 285 210 90 66 184 137 210 157 25 21 48 37 51 38 3 0 25 -33 50
-73z m-8655 -118 l0 -161 -35 6 c-69 11 -110 27 -110 42 0 22 131 274 143 274
1 0 2 -72 2 -161z m6855 6 c23 -44 46 -84 50 -90 42 -58 69 -129 74 -196 4
-47 3 -68 -3 -59 -11 19 -151 347 -151 355 0 3 -11 31 -25 61 -49 108 -24 75
55 -71z m-3482 -165 c44 -36 84 -74 89 -85 5 -11 10 -107 12 -212 l3 -193 -51
0 -51 0 -1 38 c0 20 -2 46 -4 57 -4 22 -11 67 -20 130 -10 62 -55 233 -82 304
l-24 63 25 -18 c13 -11 60 -48 104 -84z m-3478 -36 c30 -8 63 -17 74 -19 10
-2 21 -7 24 -10 3 -3 6 -121 7 -263 1 -285 3 -298 67 -344 l33 -23 447 0 c247
0 448 -2 448 -5 0 -3 -24 -16 -53 -29 -38 -17 -74 -24 -137 -26 -115 -4 -416
-14 -630 -20 -96 -3 -234 -8 -307 -10 -107 -4 -132 -2 -136 10 -11 28 -5 312
9 407 19 138 75 348 92 348 4 0 32 -7 62 -16z m5804 -14 c61 -17 179 -48 261
-71 83 -22 158 -42 167 -44 53 -11 144 -39 153 -48 7 -7 6 -8 -3 -3 -10 6 -11
-5 -6 -51 4 -32 8 -65 10 -73 1 -8 3 -32 3 -52 l1 -38 59 0 59 0 -4 38 c-1 20
-6 63 -9 95 -3 31 -2 57 3 57 4 0 59 -14 122 -31 63 -17 124 -33 136 -36 11
-2 65 -41 120 -85 176 -143 163 -128 154 -176 -4 -23 -5 -42 -1 -43 3 0 -59
-32 -139 -70 l-145 -70 -146 -4 -147 -4 19 49 c10 27 22 74 27 105 8 47 7 55
-7 56 -9 0 -33 2 -53 5 -42 5 -45 1 -54 -52 -5 -36 -19 -81 -39 -126 -5 -13
-1 -20 16 -27 13 -5 22 -10 19 -11 -12 -3 -494 -19 -730 -24 -30 -1 -60 -5
-66 -9 -7 -4 -14 2 -18 16 -8 34 -5 316 5 378 26 166 27 167 64 292 18 63 30
87 42 87 9 0 66 -14 127 -30z m-2594 -86 c27 -93 47 -195 55 -276 l7 -66 -79
3 c-43 2 -130 6 -193 9 -63 3 -171 8 -240 12 -220 11 -254 12 -303 13 l-48 1
3 101 3 102 285 63 c157 35 330 75 385 87 55 13 101 23 103 22 1 -1 12 -33 22
-71z m5737 -25 c13 -46 26 -100 29 -119 3 -19 7 -41 9 -48 3 -7 7 -46 10 -85
3 -40 8 -83 11 -95 4 -22 2 -23 -24 -17 -26 5 -31 2 -42 -25 -7 -18 -30 -57
-50 -89 l-37 -57 44 -38 43 -37 27 45 c43 70 44 68 29 -84 -4 -30 -8 -66 -11
-80 -16 -88 -39 -184 -57 -238 -16 -51 -23 -62 -37 -57 -9 4 -68 23 -131 42
-63 19 -180 55 -260 80 -80 25 -197 60 -260 80 -386 116 -400 122 -470 182
-36 31 -67 58 -70 61 -7 7 -155 134 -156 135 -1 0 -5 18 -8 40 l-7 40 140 103
141 103 542 123 c299 67 550 122 558 121 9 -1 22 -32 37 -86z m-1507 -41 c-5
-24 -11 -65 -15 -93 -3 -27 -7 -51 -9 -52 -2 -2 -22 -6 -44 -9 -50 -7 -52 0
-16 59 48 76 87 137 89 137 2 0 -1 -19 -5 -42z m-254 -35 c70 -126 68 -117 36
-123 -51 -11 -62 -2 -63 49 0 25 -4 67 -8 94 -4 26 -7 47 -5 47 1 0 19 -30 40
-67z m-206 -130 c24 -5 98 -89 87 -99 -5 -5 -147 105 -147 113 0 3 8 2 18 -2
9 -4 28 -10 42 -12z m610 -44 c-44 -32 -83 -59 -86 -59 -3 0 -14 10 -23 22
-24 28 -16 55 17 61 33 6 68 15 106 25 65 18 62 8 -14 -49z m-4830 -114 c254
-11 399 -18 420 -20 14 -1 42 -3 62 -4 l36 -1 -2 -95 c-1 -52 -4 -96 -6 -99
-3 -2 -39 2 -80 10 -41 8 -88 17 -105 20 -16 2 -37 7 -45 9 -8 2 -35 7 -60 10
-25 3 -61 10 -80 15 -19 5 -52 11 -74 14 -21 4 -41 8 -45 10 -3 2 -28 7 -56
10 -27 4 -66 11 -85 15 -19 5 -79 17 -132 27 l-98 17 0 39 0 40 143 -7 c78 -4
171 -8 207 -10z m821 -42 c1 -12 1 -83 0 -128 -2 -52 -45 -108 -78 -99 -21 6
-22 10 -18 118 3 61 5 112 5 114 0 6 90 1 91 -5z m557 -102 c-13 -14 -25 -28
-28 -31 -3 -3 -22 -24 -42 -47 -33 -37 -38 -40 -43 -22 -14 44 -8 81 16 100
29 23 77 37 102 31 17 -4 16 -7 -5 -31z m3527 -115 l40 -35 -89 27 c-48 14
-91 32 -93 39 -3 7 -2 29 1 49 l7 35 47 -40 c26 -22 65 -56 87 -75z m-616 74
c5 -16 9 -30 8 -31 -7 -2 -157 -5 -157 -2 0 5 115 62 127 63 6 0 16 -13 22
-30z m-5726 -11 c3 -10 0 -19 -6 -20 -7 -1 -50 -2 -97 -4 l-85 -3 48 23 c76
37 131 39 140 4z m580 -51 c26 -22 47 -41 47 -43 0 -5 -165 47 -173 54 -4 4
-5 15 -1 25 10 27 72 9 127 -36z m182 7 c11 -2 43 -7 70 -10 28 -3 57 -8 65
-10 8 -2 38 -6 65 -10 28 -3 111 -15 185 -26 74 -11 149 -22 165 -24 17 -2 46
-7 65 -10 19 -3 49 -7 65 -9 17 -3 111 -16 210 -31 99 -14 196 -28 215 -31 48
-7 62 -12 56 -22 -3 -5 -8 -22 -10 -38 -5 -24 -23 -88 -53 -186 -7 -23 -4 -23
-104 8 -46 14 -97 30 -114 34 -16 5 -111 34 -210 65 -99 31 -187 58 -195 60
-8 2 -118 36 -243 74 -222 69 -230 72 -288 122 -32 28 -59 53 -59 56 0 4 70
-3 115 -12z m2266 -60 c19 -42 19 -99 1 -117 -8 -7 -222 -22 -222 -15 0 2 8
13 18 25 9 11 24 29 32 39 96 118 112 133 132 122 11 -6 29 -30 39 -54z
m-3095 -123 l-51 -150 -90 -98 c-49 -54 -101 -109 -113 -123 -66 -71 -200
-218 -226 -245 -23 -25 -157 -171 -216 -236 -8 -9 -39 -42 -68 -73 l-53 -57
-93 93 c-109 107 -184 200 -254 312 -53 87 -112 198 -112 214 0 5 28 23 63 39
34 17 143 69 242 117 99 48 216 104 260 125 44 21 161 77 260 125 99 48 195
90 214 94 19 3 91 7 161 9 l127 3 -51 -149z m157 125 l27 -22 -69 -75 -70 -75
30 89 c41 123 38 119 82 83z m5637 16 c0 -5 -21 -72 -47 -150 l-48 -141 -90
-98 c-49 -53 -101 -109 -115 -124 -90 -97 -204 -221 -221 -241 -11 -13 -46
-50 -77 -84 -150 -160 -257 -278 -260 -286 -11 -30 -243 216 -337 357 -51 77
-145 244 -145 258 0 4 62 36 138 72 75 37 187 90 247 119 61 29 173 83 250
120 77 37 203 98 280 134 l140 66 143 3 c78 2 142 0 142 -5z m129 -43 c0 -3
-29 -36 -64 -75 l-64 -70 32 96 32 96 32 -21 c18 -12 33 -23 32 -26z m292 18
c1 -18 3 -64 5 -102 2 -38 2 -67 -1 -64 -3 2 -22 38 -44 78 l-39 74 32 23 c41
29 46 29 47 -9z m-6731 -41 c-69 -34 -177 -86 -240 -116 -63 -30 -211 -101
-329 -158 -163 -79 -216 -101 -223 -91 -29 45 -113 374 -99 390 3 3 94 9 201
12 107 3 294 8 415 12 121 3 221 7 222 8 1 0 41 2 90 3 l88 1 -125 -61z m5765
7 c-60 -29 -152 -74 -202 -99 -98 -47 -119 -52 -55 -13 20 12 54 38 75 57 l37
34 -36 31 -37 31 69 5 c38 3 112 6 164 6 l95 1 -110 -53z m-257 29 c-15 -19
-115 -83 -128 -83 -13 0 -13 -1 10 -51 11 -24 20 -49 20 -55 0 -6 -60 -39
-132 -74 -73 -35 -178 -85 -232 -112 -55 -26 -101 -46 -102 -45 -1 1 -13 35
-28 75 -17 49 -22 72 -13 71 43 -5 47 0 47 56 0 53 -1 55 -27 56 -16 1 -33 1
-40 0 -11 -2 -31 25 -31 42 0 14 -13 92 -19 110 -4 16 -2 17 15 8 11 -6 21 -8
24 -6 2 2 121 7 263 10 143 4 261 8 262 8 1 1 29 3 63 3 53 2 59 0 48 -13z
m1446 -38 c112 -34 159 -60 206 -114 3 -4 34 -31 70 -61 36 -30 67 -57 70 -60
3 -3 52 -45 110 -95 58 -49 107 -92 110 -95 3 -3 34 -30 70 -60 36 -30 67 -58
70 -61 3 -3 39 -35 80 -70 41 -35 92 -79 113 -99 21 -19 45 -39 53 -43 13 -8
13 -12 -2 -35 -36 -55 -174 -196 -268 -275 -58 -48 -220 -157 -279 -187 -17
-8 -31 -10 -36 -4 -5 5 -55 99 -111 209 -56 110 -131 254 -165 320 -34 66
-103 199 -153 295 l-90 176 -7 131 c-4 72 -8 142 -9 156 -3 22 -1 24 23 17 14
-4 80 -24 145 -45z m-5973 -4 c7 -111 7 -124 -2 -110 -18 27 -69 128 -69 138
0 16 70 -11 71 -28z m-127 8 c2 -2 35 -66 74 -142 78 -152 74 -135 87 -392 3
-55 7 -129 10 -165 7 -103 15 -238 20 -325 3 -44 7 -111 9 -150 3 -38 8 -116
11 -173 l6 -102 -28 -1 c-15 0 -37 -3 -48 -5 -32 -7 -305 -7 -360 0 -169 21
-385 76 -467 117 -19 10 -19 8 182 599 67 195 131 384 143 420 12 35 28 71 37
80 8 9 44 47 79 86 158 172 146 162 196 159 25 -1 47 -4 49 -6z m5821 -139
c81 -159 75 -133 90 -395 3 -49 8 -119 10 -155 2 -36 7 -117 10 -180 4 -63 8
-137 10 -165 10 -145 18 -287 19 -344 1 -57 -1 -64 -19 -67 -192 -33 -462 -20
-660 31 -88 23 -219 65 -228 74 -4 5 33 129 83 277 51 148 132 388 181 533 49
145 94 271 101 280 14 17 77 86 175 191 59 62 64 65 108 65 l47 0 73 -145z
m-5411 44 c153 -56 221 -85 247 -108 19 -17 62 -53 94 -81 32 -27 63 -55 69
-60 6 -6 42 -37 81 -70 68 -59 127 -110 149 -130 6 -6 71 -61 144 -124 72 -63
132 -117 132 -120 0 -10 -130 -151 -197 -215 -79 -74 -223 -181 -320 -236 -63
-36 -77 -40 -88 -29 -7 8 -63 113 -125 234 -148 289 -281 547 -343 665 -27 52
-51 111 -53 130 -9 86 -13 220 -8 220 4 0 101 -34 218 -76z m626 -120 c190
-58 385 -118 433 -132 85 -25 88 -27 82 -52 -9 -35 -9 -35 -57 -17 -24 9 -119
43 -213 77 -93 34 -177 64 -185 67 -8 4 -19 7 -25 9 -51 15 -452 167 -458 173
-5 5 11 3 35 -5 23 -8 198 -62 388 -120z m5705 15 c198 -61 398 -122 445 -136
47 -14 90 -28 97 -32 15 -8 -71 -190 -139 -294 l-45 -69 -130 114 c-71 62
-223 194 -338 293 -252 218 -284 248 -265 241 8 -3 177 -56 375 -117z m-2145
51 c-8 -5 -19 -10 -25 -10 -5 0 -3 5 5 10 8 5 20 10 25 10 6 0 3 -5 -5 -10z
m-1777 -94 c25 -47 25 -125 2 -184 l-18 -44 -65 64 c-68 67 -145 158 -139 165
7 6 171 42 186 40 8 -1 23 -19 34 -41z m-1668 -121 c282 -102 349 -126 353
-129 5 -6 -36 -84 -90 -168 -53 -83 -52 -82 -103 -37 -16 15 -138 120 -270
234 -132 114 -247 214 -255 222 -14 13 30 -2 365 -122z m-1641 -161 c-30 -87
-57 -166 -59 -174 -2 -8 -29 -89 -60 -180 -31 -91 -75 -222 -98 -293 -26 -78
-47 -127 -55 -127 -40 0 -337 183 -337 207 0 6 41 54 90 108 50 54 97 106 105
115 14 16 144 157 285 310 33 35 85 91 115 123 30 32 57 63 59 68 1 6 5 8 7 6
2 -2 -21 -75 -52 -163z m5751 4 c-29 -84 -101 -298 -161 -474 l-108 -322 -81
40 c-92 46 -277 167 -273 178 2 5 48 56 103 115 55 59 108 117 118 129 16 18
143 156 217 236 14 15 66 71 115 125 102 111 115 125 119 125 2 0 -20 -69 -49
-152z m-4998 14 c24 -48 82 -163 131 -257 48 -93 131 -254 185 -356 l96 -187
-52 -22 c-63 -28 -217 -80 -217 -75 0 3 -11 0 -26 -5 -14 -6 -39 -12 -55 -15
-17 -3 -36 -7 -42 -8 -6 -1 -12 7 -13 18 -1 11 -4 76 -8 145 -4 69 -9 148 -11
175 -2 28 -6 102 -10 165 -3 63 -8 135 -10 160 -2 25 -7 99 -10 165 -4 66 -8
135 -10 153 -1 17 0 32 4 31 3 0 25 -39 48 -87z m5788 -77 c112 -216 207 -399
291 -561 41 -78 74 -146 74 -151 0 -17 -262 -110 -361 -128 -26 -5 -36 -3 -36
7 0 7 -3 65 -7 128 -9 137 -12 198 -20 350 -4 63 -9 138 -11 165 -2 28 -7 104
-10 170 -4 66 -8 135 -10 154 -2 19 0 30 4 25 5 -5 44 -76 86 -159z"/>
<path d="M5806 6468 c-10 -5 -14 -32 -15 -93 -1 -46 -4 -91 -7 -99 -4 -11 4
-16 28 -21 81 -14 82 -13 88 30 3 22 5 74 5 115 l0 75 -42 0 c-24 1 -49 -3
-57 -7z"/>
<path d="M5746 6124 c-4 -15 -22 -57 -41 -95 -36 -74 -37 -73 27 -101 35 -16
37 -16 50 5 24 37 69 138 74 167 5 24 2 27 -34 38 -57 17 -69 15 -76 -14z"/>
<path d="M5567 5764 c-26 -52 -47 -98 -47 -104 0 -7 82 -50 96 -50 8 0 94 192
89 200 -3 5 -23 17 -43 26 -20 10 -39 19 -43 20 -3 2 -26 -40 -52 -92z"/>
<path d="M5056 3523 c-7 -18 1 -200 9 -213 5 -8 22 -9 49 -4 22 4 47 7 54 7 9
0 10 12 5 46 -4 25 -6 74 -6 109 l1 62 -32 1 c-17 0 -41 2 -53 3 -12 1 -24 -3
-27 -11z"/>
<path d="M5145 3196 c-22 -7 -40 -17 -40 -22 0 -10 56 -195 61 -203 2 -2 26 3
53 10 34 8 51 18 51 28 0 32 -62 201 -73 200 -7 -1 -30 -7 -52 -13z"/>
<path d="M8342 3143 c-42 -96 -62 -145 -62 -156 0 -12 65 -37 94 -37 7 0 16
10 20 23 3 12 18 52 35 87 16 36 30 70 31 75 2 10 -66 54 -86 55 -6 0 -20 -21
-32 -47z"/>
<path d="M8231 2816 c-19 -93 -28 -165 -22 -175 6 -9 97 -19 105 -10 2 2 7 29
10 60 4 31 9 67 12 80 15 70 17 65 -41 81 l-54 15 -10 -51z"/>
<path d="M6832 3063 c-13 -25 -32 -86 -38 -120 -2 -15 -7 -40 -10 -55 -7 -33
14 -45 71 -44 l40 1 7 55 c5 30 15 72 23 93 20 51 20 51 -22 66 -21 8 -43 16
-50 18 -6 3 -16 -4 -21 -14z"/>
<path d="M8295 2183 c-11 -3 -30 -9 -42 -14 l-22 -8 19 -58 c11 -32 32 -82 46
-110 l26 -53 47 27 c25 15 47 28 49 29 2 1 -7 22 -19 46 -12 23 -30 66 -40 93
-17 50 -27 57 -64 48z"/>
<path d="M8441 1880 l-43 -37 49 -42 c27 -24 72 -56 101 -72 l51 -30 25 50 26
50 -38 22 c-20 12 -57 39 -82 59 l-45 37 -44 -37z"/>
<path d="M9186 1801 c-22 -16 -61 -36 -87 -45 l-47 -17 13 -51 c8 -27 16 -52
18 -54 6 -7 103 33 153 62 67 39 69 46 32 92 -18 23 -35 41 -38 41 -3 -1 -23
-13 -44 -28z"/>
<path d="M8729 1709 c-16 -50 -16 -51 6 -59 35 -13 135 -30 179 -30 45 0 43
-4 37 93 -1 12 -10 17 -33 17 -18 1 -62 7 -98 15 -36 8 -67 14 -70 15 -3 0
-12 -23 -21 -51z"/>
<path d="M6395 1623 c-33 -6 -78 -13 -100 -15 l-40 -4 -1 -44 c-1 -65 3 -71
45 -66 175 24 186 28 184 57 0 14 -7 38 -15 55 l-13 30 -60 -13z"/>
<path d="M865 9638 c-78 -14 -203 -80 -262 -137 -108 -104 -160 -216 -170
-361 -10 -156 30 -255 218 -545 176 -269 271 -471 319 -675 l13 -55 23 90 c50
203 132 369 339 690 83 128 149 255 170 328 9 33 17 93 17 140 -1 289 -232
522 -527 532 -49 1 -112 -2 -140 -7z"/>
<path d="M2680 9620 l-45 -5 3 -45 c2 -25 7 -49 11 -53 5 -5 54 -9 110 -10 84
-2 101 1 102 13 0 8 2 34 5 58 l6 42 -49 1 c-26 1 -59 2 -73 3 -14 1 -45 -1
-70 -4z"/>
<path d="M2430 9575 c-36 -11 -82 -29 -102 -39 l-37 -18 24 -49 c14 -27 28
-49 31 -49 2 0 22 9 42 19 21 11 64 27 95 36 45 13 57 20 53 33 -2 9 -7 33
-10 53 -7 42 -10 42 -96 14z"/>
<path d="M2986 9583 c-3 -10 -8 -34 -11 -54 l-7 -37 54 -12 c29 -7 76 -21 105
-31 l51 -17 17 50 c9 28 13 54 8 58 -10 10 -124 45 -175 54 -30 5 -37 3 -42
-11z"/>
<path d="M9527 9564 c-1 -1 -22 -5 -47 -8 -25 -3 -119 -26 -210 -51 -219 -59
-203 -56 -384 -61 -127 -3 -165 -1 -189 11 -47 24 -53 20 -56 -37 -1 -29 -4
-73 -6 -98 -2 -25 -7 -97 -10 -160 -3 -63 -8 -133 -10 -155 -3 -22 -7 -87 -10
-145 -4 -58 -8 -125 -10 -150 -2 -25 -6 -94 -10 -155 -3 -60 -8 -130 -10 -155
-7 -93 -18 -298 -29 -551 -7 -166 -7 -167 15 -183 13 -8 24 -14 26 -12 4 4 10
101 18 301 8 202 15 329 18 332 3 3 147 20 190 22 15 1 17 9 15 57 l-3 56 -75
-6 c-41 -4 -86 -8 -99 -9 -24 -2 -24 -1 -22 68 1 38 4 71 6 73 2 2 20 -5 42
-16 57 -29 128 -43 223 -44 89 -1 121 6 345 72 150 45 192 52 285 52 93 0 123
-8 208 -53 41 -21 77 -39 80 -39 4 0 7 19 8 43 2 71 15 417 19 502 2 44 7 150
10 236 l6 157 -50 36 c-71 52 -113 67 -202 70 -44 1 -80 1 -82 0z m65 -147
l-4 -104 49 -5 c26 -3 75 -16 108 -29 l60 -24 0 -113 c1 -98 -1 -113 -15 -108
-8 3 -46 17 -85 30 -85 31 -125 33 -126 9 0 -10 -3 -59 -5 -110 -5 -102 -10
-94 71 -108 22 -4 65 -18 95 -31 56 -25 56 -25 54 -67 -2 -23 -3 -70 -3 -104
l-1 -62 -55 25 c-30 14 -81 30 -113 36 l-59 11 4 103 4 102 -58 -4 c-32 -2
-69 -7 -83 -10 -14 -3 -38 -8 -54 -10 -16 -2 -30 -5 -32 -7 -3 -2 -5 -50 -7
-106 l-2 -102 -40 -10 c-22 -6 -71 -19 -109 -30 -38 -10 -72 -17 -76 -14 -8 5
-1 188 8 196 4 4 52 18 106 32 55 15 103 30 108 35 7 7 15 85 17 179 1 51 5
53 166 69 33 4 61 7 62 8 1 1 3 51 5 111 l3 110 -30 -1 c-54 -2 -192 -21 -196
-28 0 0 -3 -50 -5 -111 -3 -60 -7 -111 -9 -113 -1 -2 -51 -16 -110 -32 -59
-16 -109 -31 -112 -34 -3 -2 -6 -44 -8 -93 -2 -48 -4 -98 -4 -109 -1 -14 -10
-24 -25 -28 -36 -9 -125 -19 -168 -20 l-38 0 -1 -66 c-1 -36 -1 -82 -2 -104
l-1 -38 -52 6 c-29 3 -80 18 -114 32 l-60 27 4 101 c2 56 5 102 5 104 1 1 18
-6 39 -16 72 -37 167 -58 178 -40 4 6 9 57 11 114 l5 104 -29 0 c-55 0 -192
53 -194 74 -2 16 3 211 5 213 1 1 24 -8 51 -21 45 -21 91 -34 153 -41 20 -3
22 1 23 48 3 123 4 146 9 150 3 3 38 8 78 12 41 4 88 11 104 16 36 10 47 5 43
-19 -2 -9 -4 -54 -4 -98 l-1 -82 -67 -12 c-38 -8 -87 -14 -110 -15 -23 0 -45
-4 -48 -7 -3 -3 -8 -54 -11 -113 l-6 -108 69 6 c95 8 147 17 155 25 4 4 9 54
11 110 3 57 9 108 13 112 5 5 54 20 109 35 55 15 103 30 107 34 4 3 8 50 9
104 3 89 4 98 23 102 66 16 107 22 156 24 l55 2 -3 -104z"/>
<path d="M3302 9445 c-12 -25 -22 -47 -22 -50 0 -2 29 -20 63 -40 35 -19 75
-44 88 -56 l24 -20 37 43 37 43 -22 18 c-25 20 -169 107 -177 107 -3 0 -16
-20 -28 -45z"/>
<path d="M2129 9393 c-30 -32 -65 -73 -78 -92 l-24 -34 24 -18 c55 -42 68 -45
86 -18 10 13 39 47 65 75 26 28 48 55 48 60 -1 5 -15 26 -33 47 l-33 38 -55
-58z"/>
<path d="M3577 9249 c-41 -35 -45 -50 -21 -70 20 -16 64 -103 64 -125 0 -13 7
-15 38 -10 83 15 88 26 49 106 -24 49 -78 129 -88 130 -3 0 -22 -14 -42 -31z"/>
<path d="M1959 9139 c-13 -25 -69 -185 -69 -198 0 -5 13 -11 29 -14 16 -3 40
-9 54 -12 23 -6 26 -3 40 42 8 26 24 72 35 100 l22 53 -50 25 -49 25 -12 -21z"/>
<path d="M3628 8934 c-5 -4 -8 -19 -8 -33 0 -14 -11 -56 -23 -93 l-23 -66 43
-21 c24 -12 47 -21 52 -21 8 0 48 99 57 143 5 24 13 87 10 87 -42 8 -103 10
-108 4z"/>
<path d="M1856 8812 c-3 -9 -12 -53 -21 -97 -9 -44 -18 -87 -21 -97 -4 -12 5
-18 38 -24 74 -13 71 -16 90 76 9 47 19 95 22 107 4 18 -1 24 -22 29 -15 3
-39 9 -54 14 -21 7 -28 5 -32 -8z"/>
<path d="M3497 8627 c-8 -13 -38 -48 -66 -79 l-50 -55 37 -42 38 -43 56 60
c31 34 65 74 77 91 l22 30 -42 31 c-50 36 -53 36 -72 7z"/>
<path d="M7604 8447 l1 -55 38 -6 c21 -4 65 -16 98 -27 33 -12 62 -19 63 -18
11 14 35 92 31 99 -8 13 -123 48 -181 56 l-51 6 1 -55z"/>
<path d="M1781 8453 c-11 -41 -41 -172 -41 -178 0 -1 23 -9 51 -15 62 -15 61
-17 84 94 9 44 19 88 21 98 4 13 -6 19 -46 27 -28 6 -53 11 -55 11 -2 0 -9
-17 -14 -37z"/>
<path d="M7408 8418 c-43 -41 -114 -136 -106 -142 8 -8 88 -46 95 -46 5 0 17
15 27 33 11 17 37 49 58 69 l39 38 -22 45 c-12 25 -28 45 -35 45 -6 0 -32 -19
-56 -42z"/>
<path d="M8947 8423 c-4 -3 -7 -29 -7 -58 0 -46 2 -51 23 -51 12 0 61 -3 108
-7 l87 -7 6 31 c13 66 9 77 -31 83 -64 11 -180 16 -186 9z"/>
<path d="M3208 8350 l-86 -67 33 -47 32 -46 69 53 c38 28 79 61 91 72 l21 20
-36 41 -37 42 -87 -68z"/>
<path d="M7928 8350 c-15 -47 -15 -51 0 -59 27 -13 112 -31 167 -33 l50 -3 5
53 c3 29 4 55 1 58 -2 2 -23 4 -45 4 -23 0 -66 7 -96 15 -30 8 -58 15 -61 15
-3 0 -12 -23 -21 -50z"/>
<path d="M8438 8384 c-5 -4 -80 -11 -139 -13 l-37 -1 3 -42 c1 -24 3 -51 4
-60 1 -11 8 -16 21 -13 12 2 60 7 108 10 47 3 89 8 91 11 5 5 2 97 -4 102 -5
5 -43 10 -47 6z"/>
<path d="M9276 8327 c-21 -57 -22 -56 21 -73 20 -9 61 -31 89 -49 l53 -34 35
44 36 43 -55 36 c-56 38 -132 75 -151 76 -6 0 -19 -19 -28 -43z"/>
<path d="M2929 8147 l-86 -61 31 -43 c16 -24 36 -41 43 -39 17 7 173 117 173
122 0 13 -54 84 -64 83 -6 0 -50 -28 -97 -62z"/>
<path d="M1686 8119 c-10 -28 -29 -72 -41 -97 -13 -26 -21 -50 -19 -54 5 -8
96 -50 99 -46 6 9 85 200 85 207 0 4 -18 13 -41 20 -23 7 -46 14 -53 17 -7 3
-19 -16 -30 -47z"/>
<path d="M9551 8135 l-34 -36 21 -27 c12 -15 38 -52 58 -82 20 -30 38 -56 39
-58 6 -7 95 43 95 53 0 22 -118 185 -135 185 -5 0 -25 -16 -44 -35z"/>
<path d="M7256 8151 c-8 -12 -16 -62 -22 -136 -3 -38 -7 -76 -9 -82 -3 -10 12
-13 55 -13 59 0 60 1 61 28 1 43 6 95 14 141 4 22 5 41 3 41 -1 0 -24 7 -50
15 -26 7 -50 10 -52 6z"/>
<path d="M2694 7976 c-33 -25 -74 -57 -91 -73 l-33 -28 36 -42 36 -41 89 70
c90 71 90 71 71 92 -10 12 -26 31 -34 44 l-15 23 -59 -45z"/>
<path d="M1523 7777 c-26 -51 -49 -97 -51 -102 -3 -14 89 -59 98 -48 9 10 83
151 92 175 5 12 -5 23 -42 42 l-48 25 -49 -92z"/>
<path d="M9720 7846 c-19 -7 -34 -20 -33 -27 0 -8 9 -55 19 -105 14 -72 21
-91 33 -89 9 2 33 4 54 4 35 1 37 3 37 34 0 17 -9 67 -20 111 -11 43 -20 80
-20 82 0 8 -36 2 -70 -10z"/>
<path d="M883 7743 c-29 -47 -53 -91 -53 -97 0 -12 86 -64 93 -56 18 22 107
177 107 187 0 7 -6 13 -12 13 -7 0 -24 9 -38 20 -14 11 -29 19 -35 19 -5 0
-34 -39 -62 -86z"/>
<path d="M7238 7799 c-10 -6 -9 -36 7 -159 9 -68 9 -68 57 -60 49 7 71 17 63
30 -3 4 -8 41 -11 82 -4 40 -8 80 -10 88 -1 8 -3 18 -3 22 -1 9 -88 6 -103 -3z"/>
<path d="M2401 7708 l-71 -83 23 -20 c71 -59 63 -57 90 -22 14 18 37 46 52 62
15 17 36 40 48 52 l20 22 -34 36 c-18 19 -39 35 -45 35 -7 0 -44 -37 -83 -82z"/>
<path d="M3429 7766 c-2 -2 -22 -6 -45 -9 -38 -6 -154 -44 -154 -52 0 -16 42
-95 50 -95 6 0 27 7 48 15 38 16 95 29 125 27 13 -1 17 7 17 36 0 50 -10 82
-24 82 -7 0 -15 -2 -17 -4z"/>
<path d="M8351 7653 c-34 -37 -61 -70 -61 -73 1 -3 20 -19 43 -37 l42 -32 62
67 61 67 -36 38 c-20 20 -39 37 -43 37 -4 0 -35 -30 -68 -67z"/>
<path d="M3065 7610 c-27 -21 -68 -54 -90 -74 l-40 -35 40 -40 40 -40 31 27
c62 54 79 67 107 85 l28 18 -23 40 c-12 22 -27 44 -33 48 -6 5 -31 -7 -60 -29z"/>
<path d="M1361 7461 l-50 -98 50 -23 c27 -13 51 -21 54 -18 6 5 95 187 95 193
0 5 -80 45 -90 45 -5 0 -32 -44 -59 -99z"/>
<path d="M713 7438 l-51 -103 49 -23 c28 -13 52 -23 53 -21 6 6 96 188 96 193
0 4 -88 56 -94 56 -1 0 -25 -46 -53 -102z"/>
<path d="M2201 7440 c-33 -48 -61 -92 -61 -97 0 -4 19 -20 43 -36 48 -31 35
-40 118 78 27 38 49 72 49 76 0 3 -20 20 -44 37 l-43 31 -62 -89z"/>
<path d="M9735 7510 c-5 -9 -10 -208 -5 -213 3 -3 28 -7 55 -10 l50 -5 4 57
c7 106 7 171 2 172 -19 4 -103 4 -106 -1z"/>
<path d="M7355 7474 c-5 -1 -27 -5 -48 -9 -21 -3 -36 -9 -33 -13 2 -4 7 -31
10 -61 6 -52 8 -64 21 -127 6 -25 8 -26 57 -20 29 4 53 8 55 10 2 2 -4 51 -14
109 -16 100 -24 118 -48 111z"/>
<path d="M8190 7425 c-20 -48 -47 -171 -39 -180 3 -2 28 -7 57 -11 40 -5 52
-3 53 7 2 33 11 75 25 113 9 23 18 48 20 56 5 15 -59 60 -85 60 -7 0 -20 -20
-31 -45z"/>
<path d="M2802 7348 c-27 -35 -57 -76 -67 -92 -19 -28 -18 -28 6 -47 50 -38
70 -45 80 -28 4 9 33 48 63 87 l55 71 -40 35 c-21 20 -41 36 -43 36 -2 0 -26
-28 -54 -62z"/>
<path d="M1238 7168 c-15 -46 -28 -96 -30 -112 -3 -30 -3 -30 68 -42 l31 -5
27 85 c15 48 29 93 32 101 4 11 -7 21 -37 35 -24 11 -49 20 -54 20 -6 0 -23
-37 -37 -82z"/>
<path d="M2047 7187 c-42 -87 -68 -168 -54 -172 74 -23 89 -26 94 -21 3 3 21
42 40 88 18 46 36 88 39 94 3 6 -17 22 -44 37 l-49 27 -26 -53z"/>
<path d="M576 7144 c-55 -132 -56 -127 6 -145 l52 -15 41 100 40 101 -49 23
c-27 12 -50 22 -51 22 -2 0 -19 -39 -39 -86z"/>
<path d="M9676 7103 c-16 -48 -33 -93 -38 -100 -9 -12 18 -30 76 -53 24 -9 26
-6 54 73 16 45 33 96 36 113 6 29 5 32 -22 37 -16 3 -40 9 -54 12 -22 6 -25 1
-52 -82z"/>
<path d="M7356 7132 c-27 -3 -28 -6 -22 -40 14 -90 41 -192 51 -192 22 0 85
21 90 30 3 6 -3 53 -14 105 -12 52 -21 97 -21 100 0 5 -18 4 -84 -3z"/>
<path d="M2634 7092 c-16 -40 -54 -170 -54 -188 0 -6 25 -15 55 -21 l54 -9 10
47 c6 26 19 71 30 100 11 29 20 53 18 54 -1 1 -23 13 -50 28 l-47 26 -16 -37z"/>
<path d="M8148 7119 c-19 -12 11 -225 33 -231 13 -4 99 28 99 37 0 5 -4 26 -9
45 -6 19 -13 60 -16 90 -4 30 -9 57 -11 59 -7 7 -85 7 -96 0z"/>
<path d="M1179 6898 c-5 -74 -5 -119 0 -167 l6 -56 35 2 c64 4 79 11 74 36 -3
12 -5 59 -4 105 0 59 -4 82 -13 83 -6 0 -31 2 -54 5 -31 4 -43 1 -44 -8z"/>
<path d="M476 6818 c-23 -113 -24 -140 -6 -143 8 -2 31 -6 51 -10 l36 -7 17
74 c9 40 19 89 22 109 6 36 6 36 -39 48 -25 6 -50 11 -55 11 -5 0 -17 -37 -26
-82z"/>
<path d="M1963 6789 c3 -61 10 -116 15 -121 10 -10 78 -3 100 11 10 6 10 18 3
52 -6 24 -11 70 -11 102 l0 57 -32 1 c-18 0 -44 2 -57 5 l-24 4 6 -111z"/>
<path d="M9558 6863 c-9 -16 -37 -48 -62 -73 -25 -25 -46 -47 -46 -50 0 -3 15
-24 34 -48 l34 -42 47 47 c51 51 105 120 105 134 0 9 -74 59 -88 59 -4 0 -15
-12 -24 -27z"/>
<path d="M7453 6801 l-41 -16 28 -70 c15 -39 35 -87 44 -108 l16 -37 51 26
c29 14 49 30 46 37 -3 7 -21 50 -41 97 -19 47 -41 86 -48 87 -7 0 -32 -6 -55
-16z"/>
<path d="M8285 6802 c-56 -32 -56 -32 -44 -53 13 -24 139 -159 149 -159 3 0
21 18 39 40 l33 41 -68 72 c-37 40 -70 73 -73 74 -3 1 -19 -6 -36 -15z"/>
<path d="M2554 6733 c-8 -57 -9 -65 -22 -121 -11 -48 -6 -54 60 -66 36 -7 37
-6 47 31 14 53 35 183 30 187 -2 2 -27 7 -56 11 l-52 7 -7 -49z"/>
<path d="M9278 6636 c-37 -19 -77 -36 -89 -39 -23 -6 -22 -26 4 -88 l12 -28
65 27 c36 15 84 37 107 50 l42 22 -27 45 c-15 25 -31 45 -37 44 -5 0 -40 -15
-77 -33z"/>
<path d="M8525 6569 l-26 -50 65 -29 c58 -27 154 -55 161 -48 2 2 6 23 10 48
4 24 8 47 11 51 2 4 -18 12 -44 19 -26 7 -71 24 -100 36 l-52 23 -25 -50z"/>
<path d="M1273 6572 c-23 -9 -44 -20 -48 -24 -9 -8 26 -83 72 -156 l33 -53 45
32 c25 18 45 34 45 37 0 2 -9 16 -19 30 -10 15 -33 55 -51 90 -17 34 -32 62
-33 61 -1 0 -21 -8 -44 -17z"/>
<path d="M2056 6554 c-22 -8 -41 -15 -42 -17 -2 -1 8 -34 22 -72 14 -39 31
-85 36 -102 6 -18 17 -33 23 -33 12 0 86 28 94 35 3 3 -17 61 -61 178 -12 30
-17 31 -72 11z"/>
<path d="M427 6553 c-4 -7 -20 -153 -21 -203 -1 -11 13 -16 57 -18 l57 -4 1
34 c0 18 2 47 4 63 15 117 15 125 3 126 -7 0 -32 2 -54 5 -23 3 -44 2 -47 -3z"/>
<path d="M9017 6553 c-5 -4 -71 -11 -124 -12 l-43 -1 0 -56 0 -57 93 6 c50 4
101 8 112 11 11 2 23 5 26 5 3 1 1 25 -6 54 -9 42 -16 52 -33 53 -12 1 -23 0
-25 -3z"/>
<path d="M7608 6498 l-48 -29 17 -27 c26 -41 99 -136 115 -149 16 -13 22 -10
62 35 l30 32 -26 28 c-14 15 -43 52 -64 83 l-39 56 -47 -29z"/>
<path d="M2465 6424 c-10 -19 -36 -51 -57 -70 -22 -19 -38 -38 -36 -42 9 -20
54 -82 59 -82 18 0 108 95 133 140 15 28 26 53 24 54 -6 5 -89 36 -96 36 -4 0
-16 -16 -27 -36z"/>
<path d="M1455 6290 c-32 -32 -36 -42 -26 -54 20 -24 144 -105 171 -111 22 -5
27 -1 43 37 9 24 17 46 17 50 0 4 -17 16 -38 27 -22 11 -59 35 -84 55 l-46 34
-37 -38z"/>
<path d="M7831 6244 l-31 -47 45 -28 c64 -41 138 -79 152 -79 10 0 58 89 51
95 -2 2 -25 14 -53 28 -27 14 -67 37 -88 51 -21 14 -40 26 -42 26 -1 0 -17
-21 -34 -46z"/>
<path d="M2180 6238 c-25 -11 -46 -23 -48 -29 -2 -5 -12 -9 -22 -9 -28 0 -33
-16 -20 -70 12 -48 12 -48 43 -39 45 13 44 14 63 -36 9 -25 17 -45 18 -45 9 0
98 36 98 40 0 3 -5 25 -12 48 -10 38 -9 45 5 56 16 11 16 16 -3 57 -18 39 -25
46 -49 46 -16 0 -49 -9 -73 -19z"/>
<path d="M405 6209 c-6 -9 1 -81 16 -166 12 -68 13 -69 85 -42 12 4 25 5 29 1
5 -4 5 9 1 28 -7 33 -17 122 -20 165 -1 17 -8 20 -54 21 -29 1 -55 -2 -57 -7z"/>
<path d="M1751 6137 c-6 -29 -8 -54 -3 -59 5 -5 60 -12 121 -15 l113 -6 -6 49
c-2 27 -5 54 -5 59 -1 6 -32 11 -73 11 -40 1 -87 4 -104 6 -30 6 -31 4 -43
-45z"/>
<path d="M8130 6080 c-13 -27 -22 -51 -19 -53 2 -1 31 -15 64 -31 33 -16 73
-38 88 -49 32 -22 38 -19 75 44 l22 36 -99 51 c-54 29 -101 52 -103 52 -3 0
-15 -22 -28 -50z"/>
<path d="M8420 5909 l-32 -40 75 -78 76 -78 43 37 43 37 -79 82 c-44 44 -83
81 -87 81 -4 0 -22 -18 -39 -41z"/>
<path d="M2319 5926 c-2 -3 -17 -7 -32 -10 -32 -6 -49 -15 -43 -24 8 -13 17
-87 17 -139 0 -47 3 -53 22 -54 12 -1 35 -3 52 -5 16 -2 33 2 37 9 8 13 1 128
-11 187 -6 31 -28 50 -42 36z"/>
<path d="M507 5883 c-44 -19 -44 -18 15 -144 l40 -87 49 27 c27 14 48 28 47
31 -2 3 -21 47 -43 98 -42 99 -44 101 -108 75z"/>
<path d="M8653 5663 l-42 -35 66 -81 c36 -45 70 -84 75 -85 4 -2 26 11 48 28
l40 32 -61 78 c-33 44 -66 83 -72 88 -8 7 -26 -1 -54 -25z"/>
<path d="M673 5584 c-24 -14 -43 -31 -43 -38 0 -13 89 -133 119 -160 21 -19
22 -19 61 19 l39 38 -32 37 c-18 19 -48 57 -66 83 -17 26 -33 47 -34 47 -1 -1
-21 -12 -44 -26z"/>
<path d="M2220 5563 c-13 -21 -39 -58 -58 -81 l-35 -44 40 -40 40 -40 48 58
c50 62 90 137 81 152 -3 5 -18 12 -33 15 -16 3 -35 8 -44 12 -12 4 -23 -5 -39
-32z"/>
<path d="M8865 5398 c-22 -16 -41 -33 -43 -38 -2 -5 9 -27 24 -49 20 -31 24
-44 16 -54 -9 -10 -3 -22 26 -50 37 -36 39 -37 68 -22 34 16 64 23 110 24 28
1 30 4 33 43 1 23 4 45 6 49 3 4 -1 11 -8 16 -12 9 -19 9 -85 2 -30 -4 -35 1
-70 52 l-37 56 -40 -29z"/>
<path d="M1965 5334 c-44 -22 -86 -43 -93 -45 -11 -4 -12 -13 -3 -44 18 -65
22 -68 67 -50 60 25 96 42 135 67 l37 23 -32 45 -31 46 -80 -42z"/>
<path d="M892 5326 l-32 -44 38 -25 c43 -28 127 -71 158 -81 18 -5 23 0 33 35
7 23 15 47 17 54 3 7 -12 19 -38 29 -24 10 -64 31 -91 47 -26 16 -49 29 -50
29 -2 0 -18 -20 -35 -44z"/>
<path d="M9211 5239 c-7 -27 -12 -51 -10 -53 2 -1 23 -10 45 -20 23 -10 61
-31 85 -46 47 -32 37 -35 93 31 19 23 19 23 -14 50 -36 30 -149 89 -172 89 -9
0 -19 -19 -27 -51z"/>
<path d="M1206 5212 c-4 -20 -9 -45 -12 -54 -7 -22 20 -29 168 -43 63 -5 67
-2 66 68 0 42 0 42 -103 51 -33 3 -72 8 -86 11 -24 5 -27 2 -33 -33z"/>
<path d="M1655 5239 c-22 -4 -57 -8 -77 -8 l-38 -1 0 -58 0 -59 33 3 c45 3
126 13 165 20 27 5 32 10 31 33 -1 14 -4 37 -8 51 -8 28 -34 32 -106 19z"/>
<path d="M8757 5078 c-29 -86 -46 -163 -39 -169 8 -7 95 -29 99 -25 2 1 16 49
32 105 l29 103 -32 13 c-71 29 -70 29 -89 -27z"/>
<path d="M9038 5104 c-27 -13 -48 -28 -48 -32 0 -14 85 -192 91 -192 4 0 28 9
53 19 l45 20 -28 68 c-16 37 -37 84 -48 104 l-18 37 -47 -24z"/>
<path d="M9495 5060 c-22 -18 -42 -33 -44 -35 -2 -2 10 -25 27 -51 17 -25 39
-66 48 -90 18 -48 19 -48 92 -18 l32 13 -17 43 c-20 49 -55 113 -81 146 l-18
23 -39 -31z"/>
<path d="M9163 4788 l-53 -19 14 -32 c7 -18 21 -65 31 -105 14 -58 21 -72 34
-68 9 3 33 8 54 12 20 3 37 11 37 18 0 17 -47 183 -57 199 -7 13 -15 12 -60
-5z"/>
<path d="M8689 4768 c-1 -25 -1 -146 0 -190 1 -27 2 -27 51 -23 56 5 73 12 65
25 -3 5 -6 50 -6 99 0 50 -3 93 -7 95 -4 2 -28 7 -54 10 -45 6 -48 5 -49 -16z"/>
<path d="M9618 4748 c-46 -10 -47 -11 -43 -42 2 -17 8 -66 11 -108 l7 -77 53
1 c30 1 55 7 55 12 4 26 -6 145 -15 191 -3 11 -5 23 -5 28 -1 8 1 8 -63 -5z"/>
<path d="M9269 4466 c-2 -3 -18 -7 -34 -9 -24 -3 -30 -9 -29 -28 2 -39 15
-173 18 -184 3 -8 61 -11 107 -6 8 1 2 89 -12 169 -9 48 -15 62 -28 62 -10 0
-20 -2 -22 -4z"/>
<path d="M8733 4442 c-29 -3 -32 -6 -27 -30 7 -37 12 -99 13 -149 l1 -43 59 0
c59 0 59 0 56 28 -2 15 -7 66 -10 115 -7 87 -7 87 -33 85 -15 -2 -41 -4 -59
-6z"/>
<path d="M9599 4398 c-3 -37 3 -203 8 -211 4 -7 53 -6 110 3 1 0 0 8 -2 18 -2
9 -4 59 -4 110 l-1 92 -55 0 c-37 0 -55 -4 -56 -12z"/>
<path d="M9218 4108 c0 -12 -2 -27 -3 -33 -12 -65 -20 -94 -32 -118 -14 -27
-13 -28 24 -43 21 -9 46 -20 55 -25 15 -8 20 1 38 58 28 88 37 173 18 174 -7
0 -32 2 -55 5 -40 5 -43 4 -45 -18z"/>
<path d="M8724 4099 c-3 -5 -8 -25 -10 -45 -2 -19 -13 -58 -24 -86 -11 -29
-19 -53 -17 -53 1 -1 23 -14 48 -29 l46 -26 21 48 c25 57 41 124 42 167 0 29
-2 30 -50 32 -27 1 -52 -3 -56 -8z"/>
<path d="M9657 4072 l-48 -3 6 -72 c3 -40 6 -91 8 -114 l2 -43 45 4 c25 2 51
4 57 5 10 1 12 20 7 79 -11 157 -7 148 -77 144z"/>
<path d="M9110 3831 c0 -5 -35 -26 -78 -47 l-79 -38 18 -45 c9 -25 22 -47 29
-49 15 -5 147 60 182 91 l27 24 -37 36 c-36 36 -62 47 -62 28z"/>
<path d="M9679 3732 l-46 -3 4 -69 c2 -38 5 -89 6 -112 l2 -43 55 1 55 0 -2
65 c-1 35 -2 85 -2 110 -1 53 -5 55 -72 51z"/>
<path d="M9643 3280 l-2 -110 27 -1 c15 0 39 -2 55 -4 15 -2 27 -1 28 3 0 4 3
55 5 115 l4 107 -57 0 -58 0 -2 -110z"/>
<path d="M9629 3037 c-2 -23 -2 -29 -14 -107 -15 -101 -20 -92 57 -105 40 -6
36 -11 53 68 2 13 7 53 11 90 6 65 6 67 -17 68 -13 0 -39 2 -56 4 -28 3 -33 0
-34 -18z"/>
<path d="M5172 2192 c-12 -2 -20 -6 -18 -10 2 -4 7 -29 10 -55 8 -61 44 -157
61 -163 6 -3 30 5 51 17 21 13 40 23 41 23 1 1 -9 33 -23 71 -13 39 -24 82
-24 97 0 26 -3 28 -37 26 -21 -1 -48 -4 -61 -6z"/>
<path d="M5338 1889 c-21 -17 -38 -37 -38 -44 0 -14 145 -155 160 -155 5 0 23
18 39 41 l30 40 -77 75 c-42 41 -77 74 -77 74 0 -1 -17 -14 -37 -31z"/>
<path d="M5591 1665 c-13 -25 -22 -47 -20 -49 9 -9 125 -57 170 -70 l48 -15
11 37 c14 53 12 72 -7 79 -10 3 -45 17 -78 30 -97 40 -97 40 -124 -12z"/>
</g>
</svg>
